# Blender 3.3.0
# www.blender.org
mtllib flag.mtl
o Cylinder
v -0.000000 -2.869743 -0.111557
v -0.000000 2.869743 -0.111557
v 0.055778 -2.869743 -0.096611
v 0.055778 2.869743 -0.096611
v 0.096611 -2.869743 -0.055778
v 0.096611 2.869743 -0.055778
v 0.111557 -2.869743 -0.000000
v 0.111557 2.869743 -0.000000
v 0.096611 -2.869743 0.055778
v 0.096611 2.869743 0.055778
v 0.055778 -2.869743 0.096611
v 0.055778 2.869743 0.096611
v -0.000000 -2.869743 0.111557
v -0.000000 2.869743 0.111557
v -0.055778 -2.869743 0.096611
v -0.055778 2.869743 0.096611
v -0.096611 -2.869743 0.055778
v -0.096611 2.869743 0.055778
v -0.111557 -2.869743 -0.000000
v -0.111557 2.869743 -0.000000
v -0.096611 -2.869743 -0.055778
v -0.096611 2.869743 -0.055778
v -0.055778 -2.869743 -0.096611
v -0.055778 2.869743 -0.096611
v 0.042024 0.728324 0.051446
v 0.042024 2.728324 0.051446
v 0.042024 0.728324 -0.051446
v 0.042024 2.728324 -0.051446
v 2.042024 0.962740 0.268320
v 2.042024 2.728324 0.268320
v 2.042024 0.962740 0.165428
v 2.042024 2.728324 0.165428
v 1.542024 0.728324 -0.051446
v 1.042024 0.728324 0.114709
v 0.542024 0.728324 -0.051446
v 0.542024 2.728324 -0.051446
v 1.042024 2.728324 0.114709
v 1.542024 2.728324 -0.051446
v 0.542024 0.728324 0.051446
v 1.042024 0.728324 0.217602
v 1.542024 0.728324 0.051446
v 1.542024 2.728324 0.051446
v 1.042024 2.728324 0.217602
v 0.542024 2.728324 0.051446
vn 0.2588 -0.0000 -0.9659
vn 0.7071 -0.0000 -0.7071
vn 0.9659 -0.0000 -0.2588
vn 0.9659 -0.0000 0.2588
vn 0.7071 -0.0000 0.7071
vn 0.2588 -0.0000 0.9659
vn -0.2588 -0.0000 0.9659
vn -0.7071 -0.0000 0.7071
vn -0.9659 -0.0000 0.2588
vn -0.9659 -0.0000 -0.2588
vn -0.0000 1.0000 -0.0000
vn -0.7071 -0.0000 -0.7071
vn -0.2588 -0.0000 -0.9659
vn -0.0000 -1.0000 -0.0000
vn -1.0000 -0.0000 -0.0000
vn 0.3979 -0.0000 -0.9174
vn 1.0000 -0.0000 -0.0000
vn -0.0000 -0.0000 1.0000
vn 0.4245 -0.9054 -0.0000
vn -0.3979 -0.0000 0.9174
vn 0.3154 -0.0000 0.9490
vn -0.3154 -0.0000 0.9490
vn -0.0000 -0.0000 -1.0000
vn 0.3154 -0.0000 -0.9490
vn -0.3154 -0.0000 -0.9490
vt 1.000000 0.500000
vt 0.000000 0.500000
vt 0.750000 0.490000
vt 1.000000 1.000000
vt 0.250000 0.490000
vt 0.000000 1.000000
vt 0.916667 0.500000
vt 0.870000 0.457846
vt 0.916667 1.000000
vt 0.370000 0.457846
vt 0.833333 0.500000
vt 0.957846 0.370000
vt 0.833333 1.000000
vt 0.457846 0.370000
vt 0.750000 0.500000
vt 0.990000 0.250000
vt 0.750000 1.000000
vt 0.490000 0.250000
vt 0.666667 0.500000
vt 0.957846 0.130000
vt 0.666667 1.000000
vt 0.457846 0.130000
vt 0.583333 0.500000
vt 0.870000 0.042154
vt 0.583333 1.000000
vt 0.370000 0.042154
vt 0.500000 0.500000
vt 0.750000 0.010000
vt 0.500000 1.000000
vt 0.250000 0.010000
vt 0.416667 0.500000
vt 0.630000 0.042154
vt 0.416667 1.000000
vt 0.130000 0.042154
vt 0.333333 0.500000
vt 0.542154 0.130000
vt 0.333333 1.000000
vt 0.042154 0.130000
vt 0.250000 0.500000
vt 0.510000 0.250000
vt 0.250000 1.000000
vt 0.010000 0.250000
vt 0.166667 0.500000
vt 0.542154 0.370000
vt 0.042154 0.370000
vt 0.166667 1.000000
vt 0.083333 0.500000
vt 0.630000 0.457846
vt 0.130000 0.457846
vt 0.083333 1.000000
vt 0.375000 0.000000
vt 0.375000 1.000000
vt 0.125000 0.750000
vt 0.625000 0.000000
vt 0.625000 1.000000
vt 0.875000 0.750000
vt 0.125000 0.500000
vt 0.375000 0.250000
vt 0.875000 0.500000
vt 0.625000 0.250000
vt 0.375000 0.750000
vt 0.625000 0.750000
vt 0.375000 0.500000
vt 0.625000 0.500000
vt 0.312500 0.500000
vt 0.375000 0.437500
vt 0.250000 0.500000
vt 0.375000 0.375000
vt 0.187500 0.500000
vt 0.375000 0.312500
vt 0.812500 0.500000
vt 0.625000 0.312500
vt 0.750000 0.500000
vt 0.625000 0.375000
vt 0.687500 0.500000
vt 0.625000 0.437500
vt 0.187500 0.750000
vt 0.375000 0.937500
vt 0.250000 0.750000
vt 0.375000 0.875000
vt 0.312500 0.750000
vt 0.375000 0.812500
vt 0.687500 0.750000
vt 0.625000 0.812500
vt 0.750000 0.750000
vt 0.625000 0.875000
vt 0.812500 0.750000
vt 0.625000 0.937500
s 0
f 1/1/1 2/4/1 4/9/1 3/7/1
f 3/7/2 4/9/2 6/13/2 5/11/2
f 5/11/3 6/13/3 8/17/3 7/15/3
f 7/15/4 8/17/4 10/21/4 9/19/4
f 9/19/5 10/21/5 12/25/5 11/23/5
f 11/23/6 12/25/6 14/29/6 13/27/6
f 13/27/7 14/29/7 16/33/7 15/31/7
f 15/31/8 16/33/8 18/37/8 17/35/8
f 17/35/9 18/37/9 20/41/9 19/39/9
f 19/39/10 20/41/10 22/46/10 21/43/10
f 4/10/11 2/5/11 24/49/11 22/45/11 20/42/11 18/38/11 16/34/11 14/30/11 12/26/11 10/22/11 8/18/11 6/14/11
f 21/43/12 22/46/12 24/50/12 23/47/12
f 23/47/13 24/50/13 2/6/13 1/2/13
f 1/3/14 3/8/14 5/12/14 7/16/14 9/20/14 11/24/14 13/28/14 15/32/14 17/36/14 19/40/14 21/44/14 23/48/14
f 25/51/15 26/54/15 28/60/15 27/58/15
f 33/66/16 38/76/16 32/64/16 31/63/16
f 31/63/17 32/64/17 30/62/17 29/61/17
f 39/78/18 44/88/18 26/55/18 25/52/18
f 33/65/19 31/63/19 29/61/19 41/81/19
f 36/71/11 28/59/11 26/56/11 44/87/11
f 32/64/11 38/75/11 42/83/11 30/62/11
f 38/75/11 37/73/11 43/85/11 42/83/11
f 37/73/11 36/71/11 44/87/11 43/85/11
f 27/57/14 35/69/14 39/77/14 25/53/14
f 35/69/14 34/67/14 40/79/14 39/77/14
f 34/67/14 33/65/14 41/81/14 40/79/14
f 29/61/20 30/62/20 42/84/20 41/82/20
f 41/82/21 42/84/21 43/86/21 40/80/21
f 40/80/22 43/86/22 44/88/22 39/78/22
f 27/58/23 28/60/23 36/72/23 35/70/23
f 35/70/24 36/72/24 37/74/24 34/68/24
f 34/68/25 37/74/25 38/76/25 33/66/25
